<?xml version="1.0" standalone="no"?>
<!DOCTYPE svg PUBLIC "-//W3C//DTD SVG 20010904//EN"
 "http://www.w3.org/TR/2001/REC-SVG-20010904/DTD/svg10.dtd">
<svg version="1.0" xmlns="http://www.w3.org/2000/svg"
 width="198.000000pt" height="198.000000pt" viewBox="0 0 198.000000 198.000000"
 preserveAspectRatio="xMidYMid meet">
<metadata>
Created by potrace 1.11, written by Peter Selinger 2001-2013
</metadata>
<g transform="translate(0.000000,198.000000) scale(0.100000,-0.100000)"
fill="#000000" stroke="none">
<path d="M0 985 l0 -875 990 0 990 0 0 875 0 875 -990 0 -990 0 0 -875z m627
523 l10 -23 12 23 12 22 359 0 c331 0 360 -1 370 -17 10 -17 10 -17 20 0 9 14
27 17 121 17 l111 0 -7 -32 c-17 -77 -88 -176 -168 -233 l-56 -40 -1 -72 c0
-67 -2 -73 -20 -73 -28 0 -79 -26 -112 -58 -30 -28 -38 -85 -17 -124 14 -26
68 -48 118 -48 38 0 41 -2 50 -37 71 -270 91 -351 91 -361 0 -9 -131 -12 -556
-12 l-556 0 7 28 c3 15 29 105 57 200 47 160 53 173 77 178 84 18 141 61 141
106 0 41 -45 84 -97 92 -41 7 -41 8 -36 45 6 45 -17 104 -49 125 -13 8 -56 18
-96 22 -51 5 -72 11 -72 21 0 12 21 152 35 241 l6 32 118 0 c112 0 118 -1 128
-22z"/>
<path d="M407 1503 c-3 -5 -9 -47 -13 -95 l-7 -85 49 -8 c61 -9 106 -27 133
-54 l21 -21 4 23 c3 12 7 70 10 130 l5 107 -68 0 c-38 0 -82 3 -99 6 -16 3
-32 2 -35 -3z"/>
<path d="M1426 1494 c-11 -30 -7 -114 7 -114 40 0 187 95 187 121 0 5 -42 9
-94 9 -76 0 -95 -3 -100 -16z"/>
<path d="M670 1498 c0 -2 -11 -91 -25 -198 -14 -107 -25 -196 -25 -197 0 -2
169 -3 377 -3 l376 0 -7 191 c-4 106 -9 196 -12 200 -4 8 -684 14 -684 7z"/>
<path d="M1549 1400 c-36 -19 -129 -106 -129 -122 0 -16 19 -7 67 31 55 44
109 99 102 105 -2 2 -20 -4 -40 -14z"/>
<path d="M735 999 c21 -25 25 -38 19 -63 -7 -36 -24 -59 -17 -24 5 28 -12 78
-28 78 -6 0 -8 -7 -5 -16 11 -29 -13 -92 -47 -120 l-32 -27 121 5 c102 3 127
8 169 28 80 40 64 74 -60 125 l-60 25 166 0 167 0 -14 -39 c-15 -44 -6 -91 22
-122 13 -15 31 -19 82 -19 l64 0 -32 36 c-27 32 -31 43 -28 80 4 50 -3 56 -20
19 -16 -34 -15 -54 3 -90 l15 -30 -25 28 c-31 35 -32 78 -4 123 l21 34 -252 0
-252 0 27 -31z"/>
<path d="M511 713 c-16 -54 -38 -127 -49 -163 l-20 -65 265 -3 c145 -1 380 -1
522 0 l257 3 -45 163 -45 162 -428 0 -427 0 -30 -97z m122 10 c-8 -38 -27 -99
-42 -138 -21 -55 -31 -71 -49 -73 -27 -4 -28 -6 7 104 16 50 32 109 36 132 6
38 10 42 35 42 l28 0 -15 -67z m710 15 c4 -29 18 -91 31 -138 25 -84 26 -97 8
-86 -13 8 -58 135 -76 214 -14 62 -14 62 9 62 19 0 23 -6 28 -52z"/>
</g>
</svg>
